<svg width="832" height="832" viewBox="0 0 832 832" fill="none" xmlns="http://www.w3.org/2000/svg">
<path d="M498.272 152.5L685.334 476.5C721.899 539.833 676.193 619 603.062 619H228.938C155.807 619 110.101 539.833 146.666 476.5L333.728 152.5C370.293 89.1666 461.707 89.1667 498.272 152.5Z" fill="black" stroke="#D6ED17" stroke-width="10"/>
<path d="M477.4 188V284C477.4 308.96 471.56 327.76 459.88 340.4C449.48 351.44 435.16 356.96 416.92 356.96C398.84 356.96 385 352.64 375.4 344C362.6 332.32 356.2 312.32 356.2 284V188H372.52V283.76C372.52 306.96 377.32 323.36 386.92 332.96C394.12 340.16 404.52 343.76 418.12 343.76C438.44 343.76 451.96 333.12 458.68 311.84C461.08 304.32 462.28 294.96 462.28 283.76V188H477.4Z" fill="white"/>
<path d="M214.368 552V451.2H224.16L261.168 524.928L298.176 451.2H307.968V552H298.896V467.904L266.064 533.136H256.272L223.44 467.904V552H214.368ZM325.87 533.568C324.142 528.96 323.278 523.584 323.278 517.44C323.278 505.632 326.59 496.368 333.214 489.648C339.838 482.832 348.142 479.424 358.126 479.424C373.774 479.424 384.046 485.76 388.942 498.432C390.766 503.04 391.678 508.416 391.678 514.56C391.678 526.368 388.366 535.68 381.742 542.496C375.118 549.216 366.814 552.576 356.83 552.576C341.182 552.576 330.862 546.24 325.87 533.568ZM332.638 516.432C332.638 525.264 334.894 532.128 339.406 537.024C344.014 541.824 349.918 544.224 357.118 544.224C364.318 544.224 370.318 541.68 375.118 536.592C379.918 531.408 382.318 524.4 382.318 515.568C382.318 506.736 380.062 499.92 375.55 495.12C371.038 490.224 365.134 487.776 357.838 487.776C350.638 487.776 344.638 490.368 339.838 495.552C335.038 500.64 332.638 507.6 332.638 516.432ZM396.791 480L407.303 479.28L428.183 540.912L450.791 480L461.159 479.28L432.071 552H423.431L396.791 480ZM484.196 479.28V552H474.836V480L484.196 479.28ZM479.156 460.704C477.236 460.704 475.748 460.08 474.692 458.832C473.732 457.584 473.252 456 473.252 454.08C473.252 452.16 473.78 450.624 474.836 449.472C475.988 448.224 477.524 447.6 479.444 447.6C481.364 447.6 482.9 448.224 484.052 449.472C485.3 450.624 485.924 452.256 485.924 454.368C485.924 456.48 485.252 458.064 483.908 459.12C482.66 460.176 481.076 460.704 479.156 460.704ZM509.28 518.88C509.28 535.776 517.344 544.224 533.472 544.224C540.288 544.224 546.528 543.312 552.192 541.488C553.632 541.008 554.64 540.624 555.216 540.336L557.376 547.968C554.016 549.984 547.92 551.424 539.088 552.288C536.592 552.48 533.952 552.576 531.168 552.576C523.104 552.576 516.384 550.56 511.008 546.528C503.616 541.056 499.92 531.936 499.92 519.168C499.92 506.4 503.232 496.608 509.856 489.792C516.576 482.88 524.688 479.424 534.192 479.424C543.696 479.424 550.848 482.496 555.648 488.64C559.296 493.536 561.12 500.016 561.12 508.08C561.12 510 561.024 512.016 560.832 514.128H509.424C509.328 514.896 509.28 515.712 509.28 516.576V518.88ZM534.768 488.352C528.816 488.352 523.728 490.176 519.504 493.824C515.28 497.376 512.352 501.984 510.72 507.648H552.624C552.144 496.992 548.016 490.8 540.24 489.072C538.512 488.592 536.688 488.352 534.768 488.352ZM615.786 489.504C612.33 488.352 607.626 487.776 601.674 487.776C595.722 487.776 591.114 488.832 587.85 490.944C584.586 493.056 582.954 495.696 582.954 498.864C582.954 501.936 583.914 504.192 585.834 505.632C587.754 507.072 590.154 508.32 593.034 509.376C595.914 510.336 599.034 511.296 602.394 512.256C605.85 513.216 609.018 514.464 611.898 516C618.618 519.456 621.978 524.592 621.978 531.408C621.978 538.224 619.626 543.456 614.922 547.104C610.314 550.752 603.546 552.576 594.618 552.576C590.106 552.576 585.738 552.144 581.514 551.28C577.386 550.32 574.218 549.024 572.01 547.392L575.178 539.76C577.386 541.68 581.85 543.072 588.57 543.936C590.682 544.224 592.842 544.368 595.05 544.368C600.042 544.368 604.218 543.36 607.578 541.344C610.938 539.232 612.618 536.064 612.618 531.84C612.618 528.96 611.658 526.704 609.738 525.072C607.818 523.44 605.418 522.096 602.538 521.04C599.658 519.888 596.49 518.88 593.034 518.016C589.674 517.152 586.554 516.048 583.674 514.704C580.794 513.264 578.394 511.44 576.474 509.232C574.554 506.928 573.594 503.856 573.594 500.016C573.594 493.776 575.994 488.784 580.794 485.04C585.594 481.296 592.026 479.424 600.09 479.424C602.106 479.424 604.17 479.568 606.282 479.856C608.394 480.048 610.314 480.24 612.042 480.432L618.09 481.44L615.786 489.504Z" fill="#D6ED17"/>
<rect x="237" y="402" width="380" height="10" fill="#343434"/>
</svg>
